<svg width="16" height="16" viewBox="0 0 16 16" fill="none" xmlns="http://www.w3.org/2000/svg">
<path d="M15.2982 5.90172L8.51922 0.68197C8.21607 0.439343 7.78393 0.439343 7.48078 0.68197L0.70183 5.90172C0.306091 6.21846 0.531319 6.85391 1.03932 6.85391H2.20343H3.8596H5.51577H7.17194H8.8281H10.4843H12.1404H13.7966H14.9607C15.4687 6.85391 15.6939 6.21846 15.2982 5.90172Z" fill="#99999C"/>
<path d="M10.4843 12.8238V6.85391H8.8281V12.8238H10.4843Z" fill="#E2E3E5"/>
<path d="M5.51577 6.85391V12.8238H7.17194V6.85391H5.51577Z" fill="#E2E3E5"/>
<path d="M2.20343 6.85391V12.8238H3.8596V6.85391H2.20343Z" fill="#E2E3E5"/>
<path d="M13.7966 12.8238V6.85391H12.1404V12.8238H13.7966Z" fill="#E2E3E5"/>
<path d="M2.20343 12.8238H1.8674C1.41007 12.8238 1.03932 13.1925 1.03932 13.6473V15.0883C1.03932 15.3157 1.22469 15.5 1.45336 15.5H14.5466C14.7753 15.5 14.9607 15.3157 14.9607 15.0883V13.6473C14.9607 13.1925 14.5899 12.8238 14.1326 12.8238H13.7966H12.1404H10.4843H8.8281H7.17194H5.51577H3.8596H2.20343Z" fill="#99999C"/>
</svg>
