<svg width="24" height="24" viewBox="0 0 24 24" fill="none" xmlns="http://www.w3.org/2000/svg">
<path fill-rule="evenodd" clip-rule="evenodd" d="M4.5 6.75C4.5 5.64543 5.39543 4.75 6.5 4.75H17.5C18.6046 4.75 19.5 5.64543 19.5 6.75V17.25C19.5 18.3546 18.6046 19.25 17.5 19.25H6.5C5.39543 19.25 4.5 18.3546 4.5 17.25V6.75ZM17.1563 6.5625H6.84375C6.41228 6.5625 6.0625 6.90062 6.0625 7.31771V12.151C6.0625 12.5681 6.41228 12.9062 6.84375 12.9062H9.15625C9.43239 12.9062 9.65625 13.1226 9.65625 13.3896V14.5677C9.65625 14.9848 10.006 15.3229 10.4375 15.3229H13.5625C13.994 15.3229 14.3438 14.9848 14.3438 14.5677V13.3896C14.3438 13.1226 14.5676 12.9062 14.8438 12.9062H17.1563C17.5877 12.9062 17.9375 12.5681 17.9375 12.151V7.31771C17.9375 6.90062 17.5877 6.5625 17.1563 6.5625Z" fill="#99999C"/>
<path fill-rule="evenodd" clip-rule="evenodd" d="M6.84375 6.5625H17.1563C17.5877 6.5625 17.9375 6.90062 17.9375 7.31771V12.151C17.9375 12.5681 17.5877 12.9062 17.1563 12.9062H14.8438C14.5676 12.9062 14.3438 13.1226 14.3438 13.3896V14.5677C14.3438 14.9848 13.994 15.3229 13.5625 15.3229H10.4375C10.006 15.3229 9.65625 14.9848 9.65625 14.5677V13.3896C9.65625 13.1226 9.43239 12.9062 9.15625 12.9062H6.84375C6.41228 12.9062 6.0625 12.5681 6.0625 12.151V7.31771C6.0625 6.90062 6.41228 6.5625 6.84375 6.5625ZM15.5 8.375H8.5C8.36193 8.375 8.25 8.4832 8.25 8.61667V9.34167C8.25 9.47514 8.36193 9.58333 8.5 9.58333H15.5C15.6381 9.58333 15.75 9.47514 15.75 9.34167V8.61667C15.75 8.4832 15.6381 8.375 15.5 8.375Z" fill="#E2E3E5"/>
</svg>
