<svg width="16" height="12" viewBox="0 0 16 12" fill="none" xmlns="http://www.w3.org/2000/svg">
<path fill-rule="evenodd" clip-rule="evenodd" d="M0.5 4.32851V10.0179C0.5 10.9054 1.21954 11.625 2.10714 11.625H13.8929C14.7804 11.625 15.5 10.9054 15.5 10.0179V4.32851H0.5ZM10.0089 8.41071C10.0089 8.04088 10.3087 7.74107 10.6786 7.74107H12.2857C12.6556 7.74107 12.9554 8.04088 12.9554 8.41071C12.9554 8.78055 12.6556 9.08036 12.2857 9.08036H10.6786C10.3087 9.08036 10.0089 8.78055 10.0089 8.41071Z" fill="#99999C"/>
<path d="M2.10714 0.375C1.21954 0.375 0.5 1.09454 0.5 1.98214V2.98922H15.5V1.98214C15.5 1.09454 14.7804 0.375 13.8929 0.375H2.10714Z" fill="#E2E3E5"/>
</svg>
