<svg width="24" height="24" viewBox="0 0 24 24" fill="none" xmlns="http://www.w3.org/2000/svg">
<path d="M18.4939 11.2206C17.5294 10.2561 16.2213 9.71427 14.8573 9.71427C14.0835 9.71376 13.3196 9.88788 12.6224 10.2237C11.9252 10.5594 11.3128 11.0482 10.8307 11.6536C10.3487 12.2589 10.0095 12.9652 9.83839 13.7199C9.66728 14.4746 9.66866 15.2581 9.84247 16.0122C10.0163 16.7663 10.358 17.4714 10.8422 18.075C11.3263 18.6786 11.9405 19.1652 12.6389 19.4985C13.3372 19.8318 14.1018 20.0032 14.8756 20C15.6495 19.9967 16.4126 19.8188 17.1081 19.4796L19.4075 19.8934C19.6691 19.9404 19.8824 19.6849 19.7894 19.4359L19.141 17.7008C19.7042 16.8596 20.0034 15.8695 20.0002 14.8571C20.0002 13.4932 19.4584 12.185 18.4939 11.2206Z" fill="#E2E3E5"/>
<path d="M10.3031 3.99999C8.63142 3.99999 7.02821 4.66406 5.84615 5.84611C4.6641 7.02817 4.00003 8.63137 4.00003 10.303C3.99609 11.5437 4.36275 12.7573 5.05301 13.7883L4.21082 16.042C4.11779 16.291 4.33113 16.5465 4.5927 16.4995L7.54457 15.9684C7.83774 16.1113 8.1407 16.231 8.45062 16.3265C8.34272 15.854 8.28573 15.3622 8.28573 14.8571C8.28573 11.2278 11.2279 8.2857 14.8572 8.2857C15.3644 8.2857 15.8582 8.34316 16.3323 8.45194C16.1011 7.69916 15.7304 6.995 15.2381 6.37676C14.6473 5.63484 13.8967 5.0358 13.0423 4.62428C12.1878 4.21276 11.2515 3.99936 10.3031 3.99999Z" fill="#929292"/>
</svg>
