<svg width="16" height="16" viewBox="0 0 16 16" fill="none" xmlns="http://www.w3.org/2000/svg">
<path d="M3.80655 5.13745V9.05948C3.80655 9.13413 3.84816 9.20257 3.91443 9.23693L6.21314 10.4289C6.3462 10.4978 6.50504 10.4013 6.50504 10.2514V6.38257L11.9996 3.48409L9.30348 2.08499L3.80655 5.13745Z" fill="#F0F0F0"/>
<path fill-rule="evenodd" clip-rule="evenodd" d="M0.5 4.40692V11.6297C0.5 11.7751 0.578889 11.909 0.706029 11.9794L7.52188 15.7653C7.76016 15.8973 8.04925 15.899 8.28899 15.7696L15.29 11.9927C15.4194 11.923 15.5 11.7879 15.5 11.6409V4.31784C15.5 4.17332 15.422 4.04005 15.296 3.96928L8.40162 0.185949C8.28158 0.118527 8.13529 0.117621 8.01442 0.183549L0.708343 4.05596C0.57991 4.12601 0.5 4.26062 0.5 4.40692ZM3.80655 9.05948V5.13745L9.30348 2.08499L11.9996 3.48409L6.50504 6.38257V10.2514C6.50504 10.4013 6.3462 10.4978 6.21314 10.4289L3.91443 9.23693C3.84816 9.20257 3.80655 9.13413 3.80655 9.05948Z" fill="#99999C"/>
</svg>
