<svg width="16" height="16" viewBox="0 0 16 16" fill="none" xmlns="http://www.w3.org/2000/svg">
<path fill-rule="evenodd" clip-rule="evenodd" d="M14.5 11.4223C15.0523 11.4223 15.5 10.9746 15.5 10.4223V1.5C15.5 0.947715 15.0523 0.5 14.5 0.5H6.45146C5.89917 0.5 5.45146 0.947715 5.45146 1.5V4.14078V8.65534H7.9466C8.49889 8.65534 8.9466 9.10306 8.9466 9.65534V11.4223H10.5485H14.5ZM10.5397 8.65534C10.8614 8.65534 11.1222 8.39454 11.1222 8.07282V4.45184L12.0378 5.29697C12.2742 5.51519 12.6427 5.50045 12.8609 5.26405C13.0792 5.02765 13.0644 4.65911 12.828 4.44089L10.9348 2.69332C10.7117 2.48734 10.3677 2.48734 10.1446 2.69332L8.25137 4.44089C8.01497 4.65911 8.00023 5.02765 8.21845 5.26405C8.43666 5.50045 8.8052 5.51519 9.0416 5.29697L9.95717 4.45184V8.07282C9.95717 8.39454 10.218 8.65534 10.5397 8.65534Z" fill="#E2E3E5"/>
<path d="M8.9466 11.4223L5.45146 8.65534V4.14078H1.5C0.947714 4.14078 0.5 4.58849 0.5 5.14078V12.0994C0.5 12.6861 0.757645 13.2433 1.2047 13.6233L2.85248 15.0239C3.21408 15.3312 3.6732 15.5 4.14778 15.5H9.54854C10.1008 15.5 10.5485 15.0523 10.5485 14.5V11.4223H8.9466Z" fill="#99999C"/>
</svg>
