<svg width="14" height="16" viewBox="0 0 14 16" fill="none" xmlns="http://www.w3.org/2000/svg">
<path d="M0.0999756 11.7L4.89998 15.5V12.7C4.89998 12.1477 4.45226 11.7 3.89998 11.7H0.0999756Z" fill="#E2E3E5"/>
<path fill-rule="evenodd" clip-rule="evenodd" d="M13.9 14.5V1.5C13.9 0.947715 13.4523 0.5 12.9 0.5H1.09998C0.547691 0.5 0.0999756 0.947715 0.0999756 1.5V11.7H3.89998C4.45226 11.7 4.89998 12.1477 4.89998 12.7V15.5H12.9C13.4523 15.5 13.9 15.0523 13.9 14.5ZM3.4989 7.49961C3.4989 5.48377 5.13305 3.84961 7.1489 3.84961C8.30773 3.84961 9.33988 4.38937 10.0084 5.2311L10.1386 4.87584C10.2622 4.5388 10.6356 4.36576 10.9727 4.48934C11.3097 4.61293 11.4828 4.98634 11.3592 5.32338L10.6992 7.12338C10.5911 7.41811 10.2878 7.5935 9.97845 7.54016L8.23846 7.24016C7.8847 7.17916 7.64736 6.84293 7.70835 6.48917C7.76935 6.1354 8.10558 5.89807 8.45934 5.95906L9.00068 6.0524C8.57038 5.5028 7.90056 5.14961 7.1489 5.14961C5.85102 5.14961 4.7989 6.20174 4.7989 7.49961C4.7989 8.79747 5.85103 9.84961 7.1489 9.84961C7.72929 9.84961 8.25904 9.64007 8.66913 9.29168C8.94272 9.05925 9.35292 9.09262 9.58535 9.36621C9.81777 9.6398 9.7844 10.05 9.51081 10.2824C8.87451 10.823 8.049 11.1496 7.1489 11.1496C5.13305 11.1496 3.4989 9.51543 3.4989 7.49961Z" fill="#99999C"/>
</svg>
