<svg width="16" height="16" viewBox="0 0 16 16" fill="none" xmlns="http://www.w3.org/2000/svg">
<path d="M6.92267 11.9061L9.18805 11.8967C9.59516 11.895 9.81636 11.4049 9.55561 11.0823L5.43967 5.99029C5.18186 5.67133 4.70634 5.67331 4.45103 5.99441L0.3751 11.1206C0.116891 11.4453 0.341923 11.9336 0.749025 11.9319L3.01441 11.9224C3.01747 12.7041 3.02303 13.8042 3.03973 15.0384C3.0432 15.2944 3.25192 15.5 3.50797 15.5H6.45659C6.71405 15.5 6.92337 15.2923 6.92474 15.0348C6.93133 13.7973 6.92574 12.6903 6.92267 11.9061Z" fill="#E2E3E5"/>
<path d="M9.07575 4.11469L6.81036 4.12413C6.40326 4.12583 6.18206 4.61592 6.4428 4.9385L10.5587 10.0305C10.8166 10.3495 11.2921 10.3475 11.5474 10.0264L15.6233 4.90023C15.8815 4.57549 15.6565 4.08725 15.2494 4.08895L12.984 4.0984C12.9819 3.56531 12.9787 2.03922 12.9715 0.963982C12.9698 0.706823 12.7607 0.5 12.5035 0.5H9.53899C9.28041 0.5 9.07067 0.709027 9.07062 0.967614C9.07038 2.04804 9.07365 3.57903 9.07575 4.11469Z" fill="#99999C"/>
</svg>
